REM DIRINDEX 1\5,1\2\6,1\2\7,1\3\8,1\3\9,1\4\10,1\4\11,1\4\12
REM DIRNAME folder01,folder02,folder03,folder04,folder05,folder06,folder07,folder08,folder09,folder10,folder11,folder12
TITLE ""
FILE "EJE_DB3000_5th_5C_12.mp3" MP3
  TRACK 01 AUDIO
    TITLE "0:"
    INDEX 01 00:00:00
  TRACK 02 AUDIO
    TITLE "10:cjc026_10569"
    INDEX 01 00:00:05
  TRACK 03 AUDIO
    TITLE "0:"
    INDEX 01 00:01:03
  TRACK 04 AUDIO
    TITLE "11:cjc026_10570"
    INDEX 01 00:01:28
  TRACK 05 AUDIO
    TITLE "0:"
    INDEX 01 00:02:24
  TRACK 06 AUDIO
    TITLE "12:cjc026_10571"
    INDEX 01 00:02:51
  TRACK 07 AUDIO
    TITLE "0:"
    INDEX 01 00:03:47
  TRACK 08 AUDIO
    TITLE "10:cjc026_10572"
    INDEX 01 00:03:72
  TRACK 09 AUDIO
    TITLE "0:"
    INDEX 01 00:05:03
  TRACK 10 AUDIO
    TITLE "11:cjc026_10573"
    INDEX 01 00:05:26
  TRACK 11 AUDIO
    TITLE "0:"
    INDEX 01 00:06:33
  TRACK 12 AUDIO
    TITLE "12:cjc026_10574"
    INDEX 01 00:06:59
  TRACK 13 AUDIO
    TITLE "0:"
    INDEX 01 00:07:64
  TRACK 14 AUDIO
    TITLE "10:cjc026_10575"
    INDEX 01 00:08:15
  TRACK 15 AUDIO
    TITLE "0:"
    INDEX 01 00:09:00
  TRACK 16 AUDIO
    TITLE "11:cjc026_10576"
    INDEX 01 00:09:26
  TRACK 17 AUDIO
    TITLE "0:"
    INDEX 01 00:10:19
  TRACK 18 AUDIO
    TITLE "12:cjc026_10577"
    INDEX 01 00:10:45
  TRACK 19 AUDIO
    TITLE "0:"
    INDEX 01 00:11:31
  TRACK 20 AUDIO
    TITLE "10:cjc026_10578"
    INDEX 01 00:11:56
  TRACK 21 AUDIO
    TITLE "0:"
    INDEX 01 00:12:48
  TRACK 22 AUDIO
    TITLE "11:cjc026_10579"
    INDEX 01 00:12:73
  TRACK 23 AUDIO
    TITLE "0:"
    INDEX 01 00:13:69
  TRACK 24 AUDIO
    TITLE "12:cjc026_10580"
    INDEX 01 00:14:21
  TRACK 25 AUDIO
    TITLE "0:"
    INDEX 01 00:15:13
  TRACK 26 AUDIO
    TITLE "10:cjc026_10581"
    INDEX 01 00:15:36
  TRACK 27 AUDIO
    TITLE "0:"
    INDEX 01 00:16:28
  TRACK 28 AUDIO
    TITLE "11:cjc026_10582"
    INDEX 01 00:16:55
  TRACK 29 AUDIO
    TITLE "0:"
    INDEX 01 00:17:63
  TRACK 30 AUDIO
    TITLE "12:cjc026_10583"
    INDEX 01 00:18:13
  TRACK 31 AUDIO
    TITLE "0:"
    INDEX 01 00:19:05
  TRACK 32 AUDIO
    TITLE "10:cjc026_10584"
    INDEX 01 00:19:32
  TRACK 33 AUDIO
    TITLE "0:"
    INDEX 01 00:20:20
  TRACK 34 AUDIO
    TITLE "11:cjc026_10585"
    INDEX 01 00:20:47
  TRACK 35 AUDIO
    TITLE "0:"
    INDEX 01 00:21:55
  TRACK 36 AUDIO
    TITLE "12:cjc026_10586"
    INDEX 01 00:22:07
  TRACK 37 AUDIO
    TITLE "0:"
    INDEX 01 00:22:72
  TRACK 38 AUDIO
    TITLE "10:cjc026_10587"
    INDEX 01 00:23:22
  TRACK 39 AUDIO
    TITLE "0:"
    INDEX 01 00:24:31
  TRACK 40 AUDIO
    TITLE "11:cjc026_10588"
    INDEX 01 00:24:59
  TRACK 41 AUDIO
    TITLE "0:"
    INDEX 01 00:25:54
  TRACK 42 AUDIO
    TITLE "12:cjc026_10589"
    INDEX 01 00:26:07
  TRACK 43 AUDIO
    TITLE "0:"
    INDEX 01 00:27:16
  TRACK 44 AUDIO
    TITLE "10:cjc026_10590"
    INDEX 01 00:27:41
  TRACK 45 AUDIO
    TITLE "0:"
    INDEX 01 00:28:33
  TRACK 46 AUDIO
    TITLE "11:cjc026_10591"
    INDEX 01 00:28:59
  TRACK 47 AUDIO
    TITLE "0:"
    INDEX 01 00:29:54
  TRACK 48 AUDIO
    TITLE "12:cjc026_10592"
    INDEX 01 00:30:05
  TRACK 49 AUDIO
    TITLE "0:"
    INDEX 01 00:30:71
  TRACK 50 AUDIO
    TITLE "10:cjc026_10593"
    INDEX 01 00:31:22
  TRACK 51 AUDIO
    TITLE "0:"
    INDEX 01 00:32:15
  TRACK 52 AUDIO
    TITLE "11:cjc026_10594"
    INDEX 01 00:32:41
  TRACK 53 AUDIO
    TITLE "0:"
    INDEX 01 00:33:26
  TRACK 54 AUDIO
    TITLE "12:cjc026_10595"
    INDEX 01 00:33:50
  TRACK 55 AUDIO
    TITLE "0:"
    INDEX 01 00:34:45
  TRACK 56 AUDIO
    TITLE "10:cjc026_10596"
    INDEX 01 00:34:71
  TRACK 57 AUDIO
    TITLE "0:"
    INDEX 01 00:35:57
  TRACK 58 AUDIO
    TITLE "11:cjc026_10597"
    INDEX 01 00:36:07
  TRACK 59 AUDIO
    TITLE "0:"
    INDEX 01 00:37:08
  TRACK 60 AUDIO
    TITLE "12:cjc026_10598"
    INDEX 01 00:37:34
  TRACK 61 AUDIO
    TITLE "0:"
    INDEX 01 00:38:20
  TRACK 62 AUDIO
    TITLE "10:cjc026_10599"
    INDEX 01 00:38:45
  TRACK 63 AUDIO
    TITLE "0:"
    INDEX 01 00:39:52
  TRACK 64 AUDIO
    TITLE "11:cjc026_10600"
    INDEX 01 00:40:03
  TRACK 65 AUDIO
    TITLE "0:"
    INDEX 01 00:41:22
  TRACK 66 AUDIO
    TITLE "12:cjc026_10601"
    INDEX 01 00:41:45
  TRACK 67 AUDIO
    TITLE "0:"
    INDEX 01 00:42:53
  TRACK 68 AUDIO
    TITLE "10:cjc026_10602"
    INDEX 01 00:43:03
  TRACK 69 AUDIO
    TITLE "0:"
    INDEX 01 00:43:72
  TRACK 70 AUDIO
    TITLE "11:cjc026_10603"
    INDEX 01 00:44:24
  TRACK 71 AUDIO
    TITLE "0:"
    INDEX 01 00:46:33
  TRACK 72 AUDIO
    TITLE "12:cjc026_10604"
    INDEX 01 00:46:58
  TRACK 73 AUDIO
    TITLE "0:"
    INDEX 01 00:47:54
  TRACK 74 AUDIO
    TITLE "10:cjc026_10605"
    INDEX 01 00:48:04
  TRACK 75 AUDIO
    TITLE "0:"
    INDEX 01 00:49:10
  TRACK 76 AUDIO
    TITLE "11:cjc026_10606"
    INDEX 01 00:49:35
  TRACK 77 AUDIO
    TITLE "0:"
    INDEX 01 00:51:16
  TRACK 78 AUDIO
    TITLE "12:cjc026_10607"
    INDEX 01 00:51:42
  TRACK 79 AUDIO
    TITLE "0:"
    INDEX 01 00:52:47
  TRACK 80 AUDIO
    TITLE "10:cjc026_10608"
    INDEX 01 00:52:73
  TRACK 81 AUDIO
    TITLE "0:"
    INDEX 01 00:53:68
  TRACK 82 AUDIO
    TITLE "11:cjc026_10609"
    INDEX 01 00:54:19
  TRACK 83 AUDIO
    TITLE "0:"
    INDEX 01 00:55:18
  TRACK 84 AUDIO
    TITLE "12:cjc026_10610"
    INDEX 01 00:55:44
  TRACK 85 AUDIO
    TITLE "0:"
    INDEX 01 00:56:39
